<?xml version="1.0" encoding="UTF-8"?>
<svg id="Camada_1" data-name="Camada 1" xmlns="http://www.w3.org/2000/svg" viewBox="0 0 159.4 77.13">
  <defs>
    <style>
      .cls-1 {
        fill: #fff;
      }

      .cls-2 {
        fill: #0098dd;
      }
    </style>
  </defs>
  <path class="cls-1" d="M20.33,20.14c3.76,.07,7.51-.18,11.25-.34,3.23-.14,6.47,.03,9.69-.36,.32-.04,.64-.05,.96-.04,5.67,.03,11.33-.39,17-.53,4.63-.12,9.26-.27,13.88-.49,3.31-.15,6.63-.03,9.92-.42,.18-.02,.4,.03,.57-.27-.56-.4-1.27-.18-1.86-.4-.42-.16-.92-.23-1.36-.38-1.64-.56-2.09-1.36-1.8-3.1,.1-.58,.51-.9,.99-1.08,1.36-.54,2.8-.8,4.25-.94,1.03-.1,1.6,.43,1.99,1.47,.26,.69,.32,1.42,.57,2.11,.43-.05,.5-.38,.67-.64,2.19-3.46,4.39-6.91,6.6-10.36,1.3-2.02,3.17-3.07,5.55-3.43,3.2-.48,6.41-.57,9.63-.72,3.59-.18,7.18-.21,10.78-.19,2.44,.02,4.88,.12,7.3,.28,2.33,.15,4.67,.19,7,.59,2.82,.49,4.84,1.89,6.39,4.21,1.91,2.85,3.58,5.85,5.4,8.76,.33,.53,.61,1.11,1.14,1.53,.49-.52,.31-1.21,.53-1.79,.52-1.38,1.02-1.68,2.21-1.64,1.44,.05,2.81,.39,4.17,.81,.84,.26,1.32,1.15,1.32,2.18,0,.94-.53,1.7-1.54,2.02-1.16,.37-2.35,.64-3.56,.76-.15,.01-.31-.04-.46,.2,.32,.6,.98,.82,1.5,1.19,1.22,.87,2.49,1.67,3.68,2.6,1.92,1.49,2.93,3.42,3.29,5.82,.19,1.24,.19,2.45,.2,3.68,.05,5.99-.08,11.97,.1,17.96,.06,1.84-1.32,3.16-3.17,3.29-1.72,.12-3.43,.04-5.15-.01-1.17-.03-1.72-.56-1.85-1.7-.03-.28-.09-.55-.14-.82-.19-1.08-.15-2.03,1.07-2.57,.87-.39,1.31-1.23,1.77-2.02,1.19-2.07,1.7-4.36,2.08-6.68,.03-.15,0-.32-.23-.54-1.09-.08-2.2,.36-3.34,.57-2.24,.41-4.46,.9-6.7,1.3-.89,.16-1.48-.41-2.01-1.05-1.67-2.04-3.48-3.94-5.41-5.74-1.28-1.2-2.83-1.79-4.53-1.8-9.11-.04-18.22-.04-27.33,0-1.66,0-3.17,.62-4.41,1.78-1.84,1.72-3.57,3.53-5.19,5.45-.94,1.12-3.12,1.46-4.4,.78-.25-.13-.36-.32-.34-.57,.16-1.82-.2-3.66,.04-5.54,.72,0,1.39-.04,2.06,0,1.55,.11,2.76-.54,3.8-1.59,.99-.99,.9-1.41-.34-2-.98-.47-1.95-.98-2.94-1.43-3.53-1.63-6.81-3.68-9.88-6.07-.29-.22-.57-.42-.96-.42-1.56-.01-3.1-.26-4.66-.25-5.35,.04-10.7-.21-16.04-.3-3.79-.06-7.59-.05-11.38-.19-3.95-.14-7.91-.09-11.85-.28-3.36-.16-6.71-.11-10.06-.19-2.15-.06-4.31-.17-6.46-.26-.01-.06-.01-.11,0-.17Zm96.83-2.74s0,.05,0,.07c7.75,0,15.49,0,23.24,0,.8,0,1.58-.05,2.36-.23,1.32-.31,1.73-1.03,1.08-2.18-1.83-3.24-3.55-6.55-5.6-9.67-1.11-1.69-2.67-2.56-4.58-2.75-2.53-.25-5.08-.48-7.62-.48-8.73,.01-17.48-.35-26.2,.44-1.72,.16-3.06,.79-4.05,2.27-2.2,3.27-4.08,6.74-6.12,10.1-.71,1.16-.21,2.08,1.16,2.25,.83,.1,1.67,.17,2.5,.17,7.95,.01,15.89,0,23.84,0Zm34.74,5.32c-.21,.12-.46,.23-.68,.39-2.99,2.16-6.28,3.78-9.59,5.39-.94,.46-1.92,.85-2.8,1.43-.66,.43-.85,.88-.42,1.43,.84,1.08,1.84,1.91,3.34,1.94,2.98,.06,5.92-.34,8.85-.76,1.86-.27,3.43-1.09,3.99-3.15,.7-2.6,0-5.29-2.68-6.66Z"/>
  <path class="cls-2" d="M131.14,76.87c-.19-1.41-.38-2.72-.53-4.04-.08-.67-.34-1.09-1.09-1.12-2.1-.09-4.19-.12-6.33-.01-.05-.69,.52-1.11,.78-1.64,.33-.7,.99-1.24,1.33-1.94,.47-.96,1.21-1.14,2.15-1.1,.75,.04,1.51,0,2.42,0-.24-2.02-.6-3.94-1.01-5.94-1.99,2.86-3.73,5.78-5.58,8.63-1.4,2.16-2.77,4.35-4.17,6.51-.2,.31-.42,.66-.92,.65-1.67-.02-3.34,0-5.03,0-.03-.7,.43-1.1,.72-1.53,3.88-5.89,7.81-11.76,11.72-17.63,.91-1.36,1.9-2.52,3.66-2.93,2.21-.53,3.7,.19,4.3,2.35,.46,1.67,.54,3.39,.88,5.08,.48,2.46,.85,4.93,1.27,7.4,.3,1.77,.62,3.54,.89,5.32,.05,.33,.2,.58,.38,.94,.29-1.01,.67-1.94,.8-2.9,.1-.77,.44-.89,1.09-.89,3.32,.02,6.63-.01,9.95,.02,1.1,.01,1.72-.47,2.21-1.42,.54-1.05-.34-2.25-1.42-2.2-1.63,.07-3.28-.07-4.91,.04-2.1,.14-5.15-2.37-5.01-4.96,.24-4.3,2.88-7.49,7.06-8.46,.19-.04,.4-.01,.6-.01,3.8,0,7.59,0,11.39,0,.2,0,.39,.02,.7,.03-.22,1.63-.76,3.12-1.08,4.76-1.84,0-3.67,0-5.5,0s-3.52,.02-5.27-.01c-.54-.01-1.02,.14-1.48,.35-.88,.41-1.36,1.58-1.07,2.52,.14,.44,.44,.78,.96,.73,1.56-.15,3.09,.31,4.65,.24,2.01-.09,3.58,.71,4.87,2.21,.43,.5,.69,1.12,.73,1.69,.2,2.68-.22,5.22-2.3,7.16-1.74,1.62-3.79,2.46-6.23,2.13-.35-.05-.72-.02-1.08-.02-5.11,0-10.23,0-15.48,0Z"/>
  <path class="cls-2" d="M80.58,62.42c-1.19,4.93-2.34,9.66-3.48,14.38h-4.99c1.25-4.87,2.27-9.71,3.54-14.48,.43-1.62,.82-3.25,1.22-4.87,.36-1.47,2.38-2.76,3.73-2.84,2.18-.14,2.87,.34,3.61,2.53,1.23,3.66,2.44,7.32,3.66,10.99,.07,.22,.09,.46,.34,.74,1.14-4.58,2.28-9.16,3.44-13.85h4.88c.27,.52-.14,1.12-.28,1.69-1.03,4.33-2.09,8.65-3.08,12.98-.3,1.33-.69,2.64-.94,3.99-.49,2.65-3.76,4.24-6.07,3.07-1.1-.56-1.37-1.6-1.71-2.57-.75-2.09-1.33-4.24-2.05-6.34-.48-1.4-1-2.79-1.46-4.2-.11-.33-.14-.69-.35-1.22Z"/>
  <path class="cls-1" d="M74.67,50.04c-1.51-.01-2.87,0-4.23-.44-2.83-.9-4.36-2.88-4.51-5.7-.23-4.23,.91-8.22,3.36-11.69,1.62-2.29,4.02-3.63,6.79-4.19,2.2-.44,4.46-.51,6.62,.03,2.83,.71,4.73,2.62,4.98,5.73,.38,4.62-.85,8.83-3.69,12.51-1.5,1.94-3.63,2.94-5.99,3.51-1.14,.27-2.29,.21-3.31,.23Zm.83-4.55c1.65,.14,3.19-.39,4.38-1.68,2.23-2.41,2.79-5.42,2.73-8.55-.02-1.01-.69-1.88-1.68-2.41-.55-.29-1.14-.37-1.7-.42-2.31-.21-4.43,.26-5.86,2.3-1.57,2.22-2.16,4.74-2.25,7.44-.07,1.86,1.17,3.17,3.21,3.32,.36,.03,.72,0,1.18,0Z"/>
  <path class="cls-2" d="M34.86,76.81h-5.59c-.48-1.63-.61-3.38-.9-5.17h-7.34c.89-1.67,1.95-3.07,2.95-4.48,.22-.31,.74-.39,1.2-.37,.79,.04,1.59,.01,2.54,.01-.04-1.95-.67-3.77-.73-5.78-.83,.58-1.15,1.42-1.6,2.11-2.82,4.33-5.59,8.7-8.34,13.07-.27,.43-.58,.64-1.02,.64-1.67,.02-3.33,0-5.12,0,.58-1.45,1.51-2.53,2.27-3.7,3.07-4.73,6.2-9.41,9.35-14.08,.5-.75,1.03-1.5,1.55-2.23,1.07-1.52,2.51-2.12,4.29-2.27,1.57-.13,2.86,.81,3.21,2.92,.35,2.12,.77,4.22,1.14,6.34,.34,1.96,.65,3.94,1.02,5.9,.36,1.92,.63,3.85,1.12,5.75,.11,.43,.11,.85,0,1.33Z"/>
  <path class="cls-1" d="M25.33,50h-5.67c-.26-1.73-.51-3.43-.78-5.22-1.24,0-2.43,0-3.62,0s-2.39,0-3.77,0c.93-1.55,1.8-2.98,2.9-4.26,.37-.44,.88-.51,1.41-.51,.79,0,1.59,0,2.45,0-.16-1.97-.78-3.81-.95-5.79-3.55,5.06-6.75,10.34-10.09,15.55H1.46c.97-1.48,1.87-2.85,2.77-4.22,3.33-5.08,6.64-10.17,10.1-15.16,1.06-1.53,2.43-2.63,4.39-2.61,2.28,.03,2.89,.83,3.23,2.55,.65,3.32,1.09,6.69,1.74,10.01,.47,2.43,.71,4.9,1.34,7.3,.2,.74,.2,1.53,.3,2.35Z"/>
  <path class="cls-2" d="M51.67,69.2c.16-1.8,.94-3.19,1.83-4.52,.24-.36,.64-.24,.99-.27,1.26-.08,2.54,.18,3.79-.23,1.52-.5,2.36-1.83,2.07-3.38-.12-.69-.64-.91-1.2-.92-1.84-.04-3.67,0-5.51-.02-.47,0-.63,.27-.72,.64-.73,2.99-1.44,5.98-2.17,8.97-.55,2.27-1.13,4.54-1.67,6.81-.1,.43-.34,.59-.75,.59-1.47,0-2.95,0-4.55,0,.53-2.21,1.04-4.31,1.54-6.42,.7-2.92,1.3-5.87,2.12-8.76,.56-1.99,.88-4.03,1.52-6,.22-.68,.56-.86,1.2-.85,3.51,.01,7.03-.01,10.54,.02,.74,0,1.51,.1,2.22,.29,1.6,.44,2.53,1.63,2.92,3.15,.89,3.44-.92,7.91-3.97,9.77-1.21,.74-2.57,1.02-3.92,1.11-2.02,.14-4.06,.04-6.28,.04Z"/>
  <path class="cls-1" d="M43.62,28.06h5.06c-.17,1.22-.5,2.4-.79,3.59-.81,3.31-1.56,6.62-2.41,9.92-1.06,4.1-3.51,6.92-7.74,7.88-2.67,.61-5.36,.58-7.95-.4-1.68-.63-3.29-2.33-3.26-4.64,.03-2,.65-3.85,1.1-5.75,.83-3.51,1.74-7,2.64-10.58h5.08c-1.06,4.25-2.16,8.52-3.18,12.81-.18,.77-.53,1.54-.15,2.42,.4,.95,1.06,1.55,1.99,1.67,3.12,.4,5.54-.9,6.44-4.05,.98-3.42,1.78-6.89,2.64-10.34,.21-.83,.53-1.63,.55-2.54Z"/>
  <path class="cls-2" d="M1.2,54.88H19.31c.15,1.1-.37,2.01-.64,2.96-.51,1.8-.54,1.79-2.41,1.79-1.24,0-2.48,0-3.71,0-.51,0-.74,.16-.89,.71-1.28,4.82-2.49,9.67-3.59,14.53-.45,2.01-.47,2.01-2.54,2.01-1.03,0-2.07,0-3.26,0,1.4-5.78,2.77-11.44,4.16-17.2H0c.41-1.65,.8-3.19,1.2-4.78Z"/>
  <path class="cls-1" d="M55.46,32.55h-6.35c.32-1.35,.66-2.63,.92-3.93,.14-.7,.6-.62,1.08-.62,4.03,0,8.06,0,12.09,0,1.67,0,3.34,0,5.09,0-.34,1.54-.83,2.94-1.05,4.52h-6.56c-.76,3.09-1.5,6.08-2.24,9.08-.63,2.54-1.31,5.07-1.89,7.62-.15,.67-.42,.83-1.03,.82-1.39-.03-2.79,0-4.29,0,1.41-5.84,2.81-11.6,4.23-17.49Z"/>
  <path class="cls-2" d="M107.3,76.87c.54-3.03,1.44-5.85,2.02-8.83h-6.89c.23-1.55,1.03-2.79,1.68-4.08,.24-.48,.74-.5,1.24-.51,1.75-.05,3.51,.14,5.25-.3,.67-2.68,1.34-5.36,2.01-8.02h5.07c-.58,2.5-1.09,4.94-1.73,7.35-1.19,4.52-2.23,9.08-3.32,13.63-.11,.45-.2,.76-.7,.77-1.51,0-3.02,0-4.63,0Z"/>
  <path class="cls-1" d="M92.13,46.45c16.42,.04,32.81,.14,49.24,0-.54,1.58-1.87,2.64-3.35,2.63-11.23-.05-22.45,.38-33.68,.23-2.83-.04-5.67-.19-8.5-.25-1.87-.04-3.34-.88-3.71-2.6Z"/>
  <path class="cls-2" d="M40.7,76.83h-5.24c.57-2.38,1.12-4.72,1.69-7.05,.6-2.46,1.24-4.92,1.85-7.38,.57-2.27,1.16-4.54,1.66-6.82,.14-.63,.42-.76,.97-.76,1.39,.01,2.79,0,4.41,0-1.71,7.42-3.59,14.67-5.34,22Z"/>
  <path class="cls-2" d="M74.28,54.84c-.14,.86-.28,1.57-.46,2.29-.75,2.95-1.47,5.9-2.17,8.85-.79,3.34-1.6,6.68-2.41,10.02-.17,.7-.48,.89-1.14,.87-1.35-.04-2.7-.01-4.19-.01,.14-.78,.22-1.47,.38-2.14,.84-3.5,1.72-6.99,2.56-10.49,.7-2.92,1.5-5.82,2.13-8.76,.1-.46,.33-.66,.83-.65,1.43,.03,2.87,0,4.47,0Z"/>
  <path class="cls-2" d="M94.31,76.87c1.81-7.33,3.59-14.53,5.37-21.73,1.69-.19,3.33,.12,4.98-.23,.24,.98-.25,1.86-.46,2.74-1.47,6.15-3.01,12.29-4.52,18.43-.1,.39-.15,.8-.7,.8-1.51,0-3.02,0-4.67,0Z"/>
  <path class="cls-1" d="M20.33,20.14c-.01,.06-.01,.11,0,.17-.59,.11-1.18,.05-1.95-.07,.76-.17,1.35-.19,1.95-.1Z"/>
  <path class="cls-1" d="M115.97,16.27c-7.43,0-14.86,0-22.29,0-.51,0-1.01,0-1.53-.19-.97-.34-1.22-.67-.75-1.6,.67-1.33,1.42-2.63,2.17-3.91,.92-1.56,1.86-3.1,2.83-4.63,.89-1.41,2.12-2.22,3.87-2.39,2.5-.24,5.01-.39,7.51-.43,4.55-.07,9.11,.04,13.66-.04,3.36-.06,6.7,.26,10.06,.27,.79,0,1.58,.14,2.36,.29,1.5,.29,2.63,1.11,3.48,2.42,1.62,2.51,2.95,5.17,4.48,7.73,.08,.13,.15,.28,.22,.42,.64,1.37,.26,1.92-1.25,2.08-2.44,.27-4.87,.06-7.3,.07-5.83,.03-11.67,0-17.5,0v-.1Z"/>
</svg>