<?xml version="1.0" encoding="UTF-8"?>
<svg id="Camada_1" data-name="Camada 1" xmlns="http://www.w3.org/2000/svg" viewBox="0 0 240 120">
  <defs>
    <style>
      .cls-1 {
        fill: #0098dd;
      }
    </style>
  </defs>
  <path d="M131.43,54.71v-6c1.9-.01,3.87,.33,5.41-1.13,.48-.45,1.09-.84,1.17-1.61-.48-.77-1.33-.98-2.07-1.32-4.18-1.92-8.16-4.18-11.79-7.02-.33-.25-.63-.43-1.06-.45-1.8-.07-3.59-.22-5.39-.25-9.47-.14-18.94-.28-28.41-.51-6.67-.17-13.34-.43-20.02-.44-2.15,0-4.3,0-6.45,0,0-.13,0-.25,0-.38,21.04-.74,42.07-1.47,63.11-2.21,0-.12,.02-.25,.03-.37-.69-.13-1.39-.22-2.07-.4-2.75-.72-3.16-1.09-2.9-3.73,.91-1.19,2.39-1.14,3.68-1.53,.41-.12,.86-.15,1.3-.2,1.14-.13,1.86,.34,2.21,1.48,.21,.68,.38,1.36,.57,2.07,.38,.06,.47-.26,.63-.52,2.15-3.4,4.35-6.77,6.46-10.21,1.61-2.63,4.08-3.64,6.97-3.91,8.84-.83,17.71-.87,26.57-.47,2.15,.1,4.29,.31,6.43,.52,3.49,.34,5.84,2.33,7.56,5.27,1.66,2.83,3.41,5.6,5.13,8.39,.2,.33,.46,.64,.78,1.09,.57-1.28,.33-2.84,1.72-3.5,1.72-.16,3.33,.19,4.94,.68,1.15,.35,1.51,1.17,1.58,2.23,.07,1.1-.6,1.72-1.51,2.04-1.29,.45-2.64,.68-4.19,.88,1.02,1.09,2.24,1.67,3.3,2.42,1.76,1.24,3.55,2.42,4.5,4.47,.7,1.5,1,3.09,1.02,4.73,.07,6.6-.08,13.2,.11,19.79,.05,1.84-1.31,3.18-3.17,3.31-1.68,.12-3.36,.04-5.03,0-1.33-.04-1.84-.51-1.99-1.82-.07-.59-.16-1.19-.2-1.78-.04-.47,.12-.92,.54-1.13,2.31-1.18,2.98-3.45,3.71-5.64,.4-1.22,.72-2.5,.73-3.82-.77-.56-1.51-.03-2.19,.09-2.64,.44-5.25,1.03-7.87,1.58-.96,.2-1.61-.29-2.16-.96-1.67-2.04-3.48-3.95-5.4-5.76-1.31-1.24-2.89-1.85-4.64-1.86-9.08-.03-18.16-.03-27.24,0-1.71,0-3.26,.6-4.52,1.82-1.58,1.53-3.17,3.03-4.54,4.76-1.49,1.87-2.65,2.14-5.33,1.31Zm55.31-23.41c-2.14-3.73-3.97-7.57-6.48-11.03-.82-1.13-1.87-1.74-3.19-2.04-2.82-.64-5.72-.62-8.56-.65-8.75-.08-17.5-.37-26.24,.4-1.78,.16-3.14,.85-4.14,2.36-2.16,3.26-4.04,6.7-6.07,10.04-.73,1.2-.17,2.14,1.3,2.25,1.71,.12,3.43,.23,5.15,.24,5.84,.04,11.68,.06,17.51,.05,9.2,0,18.39,0,27.59-.07,1.17,0,2.51,.03,3.13-1.56Zm-6.04,14.34c.06,1.64,1.66,3.03,3.34,3.09,3.07,.11,6.1-.33,9.12-.77,1.8-.26,3.34-1.11,3.9-3.13,.78-2.8-.09-5.1-2.76-6.72-4.13,3.14-8.98,5.12-13.59,7.54Z"/>
  <path class="cls-1" d="M179.43,91.41c.33-1.25,.64-2.42,.95-3.6,.36-.37,.83-.22,1.25-.22,3-.01,6,0,9,0,2.1,0,2.26-.11,3.07-2.11-.11-.3-.23-.63-.35-.95-.4-.39-.85-.55-1.4-.55-1.56,.02-3.12,0-4.68,0-3,.02-5.91-2.62-5.01-6.47,.83-3.56,2.95-5.94,6.59-6.81,.23-.05,.45-.15,.68-.15,4.07,0,8.15,0,12.41,0-.39,1.63-.75,3.17-1.14,4.8-3.42,0-6.85,.03-10.28-.02-1.24-.02-2.27,.26-3.04,1.4v1.54c.19,.39,.49,.67,1.06,.69,1.75,.05,3.5,.17,5.25,.22,2.14,.07,4.64,1.83,4.87,3.8,.52,4.29-1.4,8.43-6.52,9.42-1.05,.2-2.05-.03-3.08-.03-5.04,.02-10.08,0-15.11,0-.08,0-.16-.02-.28-.04-.54-1.6-.29-3.39-.96-5.01-2.39-.3-4.73-.15-7.18-.18,.87-1.66,1.87-3.19,3.09-4.64h3.75c-.35-2.02-.68-3.93-1.04-6.04-3.48,5.42-6.86,10.69-10.19,15.88h-5.77c1.32-2,2.53-3.87,3.76-5.72,3.2-4.81,6.4-9.62,9.62-14.42,1.18-1.76,3.64-2.58,5.53-1.88,.87,.32,1.49,.91,1.65,1.85,.57,3.28,1.13,6.57,1.69,9.86,.49,2.9,.97,5.8,1.48,8.7,.04,.21,.21,.4,.35,.67Z"/>
  <path class="cls-1" d="M134.04,70.48h4.97c-.44,1.9-.87,3.83-1.33,5.76-1.01,4.3-2.07,8.6-3.04,12.91-.57,2.56-3.71,4.29-5.97,3.2-.94-.45-1.36-1.26-1.66-2.18-1.34-4-2.69-7.99-4.07-12.11-.59,2.44-1.17,4.8-1.75,7.16-.57,2.36-1.13,4.72-1.71,7.13h-4.99c1.15-4.81,2.28-9.55,3.43-14.28,.36-1.48,.79-2.95,1.11-4.44,.57-2.7,3.07-3.88,5.49-3.5,.9,.14,1.57,.85,1.85,1.69,1.39,4.15,2.71,8.33,4.16,12.81,1.2-4.83,2.33-9.4,3.51-14.14Z"/>
  <path d="M116.53,65.52c-1.44,.13-3.11-.08-4.69-.79-2.6-1.18-3.94-3.85-3.56-7.49,.32-3.02,1.09-5.97,2.7-8.59,2.07-3.38,5.24-5.06,9.11-5.41,1.73-.16,3.51-.17,5.21,.32,3.08,.88,4.94,3.27,4.9,6.86-.04,3.89-1.02,7.6-3.37,10.79-2.16,2.94-5.19,4.25-8.8,4.32-.4,0-.8,0-1.49,0Zm1.13-4.57c2.6,.17,4.5-.92,5.68-3.05,1.16-2.09,1.76-4.39,1.69-6.81-.04-1.22-.58-2.21-1.71-2.76-2.25-1.1-5.99-.47-7.51,1.72-1.73,2.5-2.43,5.27-2.28,8.27,.06,1.19,.83,1.93,1.88,2.37,.74,.31,1.55,.32,2.25,.26Z"/>
  <path class="cls-1" d="M77.26,92.34h-5.67c-.49-1.64-.6-3.39-.91-5.2h-7.32c.93-1.68,1.91-3.14,3-4.51,.35-.44,1.02-.33,1.58-.32,.67,.01,1.35,0,2.18,0-.3-1.96-.58-3.8-.9-5.92-.95,1.44-1.81,2.72-2.64,4.02-2.44,3.81-4.87,7.62-7.28,11.44-.22,.35-.52,.51-.85,.52-1.7,.03-3.4,.01-5.36,.01,1.41-2.16,2.69-4.12,3.98-6.07,2.9-4.4,5.79-8.81,8.7-13.2,1.16-1.75,2.62-3.04,4.88-3.04,1.82,0,2.94,.96,3.25,2.76,1.05,6.14,2.02,12.3,3.34,18.4,.07,.34,0,.7,0,1.11Z"/>
  <path d="M67.71,65.47h-5.73c-.25-1.71-.51-3.42-.77-5.2h-7.41c.95-1.63,1.83-3.1,2.99-4.39,.53-.58,1.25-.41,1.92-.43,.59-.02,1.19,0,1.89,0-.32-1.95-.64-3.84-1-6.07-3.45,5.42-6.77,10.64-10.08,15.83h-5.75c2.07-3.15,4.06-6.18,6.06-9.19,2.27-3.43,4.53-6.86,6.85-10.26,1.45-2.12,3.49-2.9,5.49-2.43,1.53,.36,1.92,1.45,2.15,2.74,.96,5.48,1.92,10.97,2.88,16.45,.17,.96,.33,1.92,.51,2.94Z"/>
  <path class="cls-1" d="M102.56,75.71c-2.23-.81-4.59-.1-7.04-.44-1.41,5.71-2.8,11.35-4.2,17.04h-5.18c1.77-7.27,3.54-14.52,5.25-21.56,.46-.47,.83-.43,1.19-.43,3.44,0,6.87-.03,10.31,0,3.06,.02,4.84,1.27,5.37,3.51,.48,2.03,.04,3.9-.72,5.74-1.45,3.52-4.21,5.06-7.9,5.14-1.83,.04-3.66,0-5.59,0,.12-1.92,1.03-3.36,1.97-4.8,1.2,0,2.32,.03,3.44,0,1.95-.07,3.84-1.4,3.11-4.2Z"/>
  <path d="M85.97,43.48h5.11c-.45,1.99-.86,3.93-1.34,5.86-.69,2.78-1.37,5.56-2.15,8.31-1.42,5.06-5.07,7.23-9.72,7.61-1.79,.15-3.56,0-5.29-.58-2.96-1-4.3-3.49-3.59-6.55,1.09-4.66,2.22-9.32,3.46-13.94,.05-.19,.04-.39,.06-.67h5.12c-1.11,4.57-2.23,9.18-3.35,13.78-.4,1.64,.7,3.09,2.42,3.17,3.3,.15,5.31-1.23,6.18-4.45,1.06-3.9,2.01-7.83,3-11.75,.06-.23,.04-.47,.07-.81Z"/>
  <path class="cls-1" d="M48.75,75.14h-6.44c.41-1.62,.8-3.17,1.2-4.77h18.18c-.06,1.63-.81,3.04-1.11,4.7h-6.36c-1.71,5.78-2.85,11.57-4.42,17.28h-5.22c1.39-5.73,2.76-11.39,4.16-17.21Z"/>
  <path d="M103.04,47.98c-1.44,5.83-2.86,11.61-4.3,17.45h-5.14c1.4-5.77,2.79-11.55,4.21-17.42h-6.36c.38-1.54,.74-2.99,1.11-4.51h18.06c-.35,1.47-.71,2.93-1.08,4.47h-6.51Z"/>
  <path class="cls-1" d="M154.86,92.34h-5.18c.7-2.95,1.38-5.83,2.08-8.8h-6.94c.4-1.73,1.12-3.21,2.06-4.55,2.09-.16,4.1,.13,6.13-.34,.67-2.66,1.34-5.35,2.02-8.06h5.09c-1.76,7.25-3.5,14.42-5.27,21.74Z"/>
  <path d="M134.55,61.96h49.23c-.44,1.49-1.8,2.58-3.3,2.59-11.31,.09-22.63,.2-33.94,.21-2.75,0-5.51-.18-8.27-.23-1.91-.04-3.42-.96-3.72-2.57Z"/>
  <path class="cls-1" d="M83.04,92.35h-5.23c1.79-7.31,3.57-14.57,5.36-21.91,1.71-.29,3.4-.02,5.24-.04-1.81,7.39-3.6,14.7-5.37,21.95Z"/>
  <path class="cls-1" d="M111.45,92.36h-5.25c1.8-7.37,3.57-14.64,5.35-21.97h5.2c-1.78,7.36-3.54,14.65-5.3,21.97Z"/>
  <path class="cls-1" d="M141.83,92.37h-5.11c1.8-7.31,3.58-14.53,5.38-21.86h5.09c-1.68,7.29-3.44,14.6-5.37,21.86Z"/>
  <path d="M133.9,31.31c-.45-.56-.3-1.06-.03-1.56,1.58-3,3.3-5.92,5.14-8.77,1.2-1.86,3.15-2.14,5.12-2.25,7.95-.43,15.9-.28,23.85-.21,2.89,.03,5.81,.03,8.68,.61,1.34,.27,2.34,1.04,3,2.14,1.62,2.69,3.15,5.44,4.7,8.18,.29,.5,.64,1.03,.24,1.82-1.33,.67-2.9,.55-4.42,.55-7.31-.02-14.63-.11-21.94-.14-7.24-.03-14.47-.02-21.71,0-.88,0-1.74-.03-2.63-.37Z"/>
</svg>